<?xml version="1.0" encoding="UTF-8" ?>
<!DOCTYPE svg PUBLIC "-//W3C//DTD SVG 1.1//EN" "http://www.w3.org/Graphics/SVG/1.1/DTD/svg11.dtd">
<svg width="1024pt" height="515pt" viewBox="0 0 1024 515" version="1.1" xmlns="http://www.w3.org/2000/svg">
<g id="#000000ff">
<path fill="#000000" opacity="1.00" d=" M 123.57 0.00 L 126.11 0.00 C 127.66 0.73 129.54 1.38 130.22 3.12 C 131.17 5.10 129.55 7.03 128.33 8.45 C 121.18 15.91 113.50 22.87 106.48 30.45 C 100.94 41.99 103.78 56.36 111.81 66.07 C 130.84 53.76 154.83 48.70 177.02 54.05 C 184.38 55.91 190.12 61.30 197.14 63.93 C 198.40 64.63 199.81 63.63 200.64 62.71 C 203.28 59.57 204.52 55.57 205.85 51.77 C 206.47 49.78 207.27 47.66 206.62 45.57 C 203.81 34.94 198.82 24.77 191.44 16.55 C 189.95 14.71 187.88 12.78 188.24 10.19 C 188.78 6.59 193.26 3.43 196.68 5.43 C 203.76 8.57 209.01 14.76 212.47 21.56 C 217.54 30.77 223.60 39.71 225.99 50.10 C 228.36 60.90 229.40 71.96 229.63 83.00 C 229.60 86.04 231.63 88.48 233.01 91.02 C 248.03 117.02 262.89 143.11 277.92 169.10 C 282.00 176.72 282.22 186.97 276.74 193.99 C 272.81 199.23 266.74 202.15 261.04 205.03 C 251.97 209.34 243.29 214.41 234.84 219.82 C 230.72 222.39 227.15 225.78 222.75 227.88 C 208.86 234.80 194.68 241.11 180.59 247.63 C 177.82 248.89 174.93 249.92 171.92 250.38 C 158.07 252.57 144.02 252.76 130.03 253.03 C 117.70 253.34 105.37 249.71 95.01 243.06 C 85.17 236.78 77.47 227.70 70.93 218.16 C 52.81 191.43 47.48 156.81 55.64 125.69 C 58.61 114.46 65.14 104.43 73.15 96.14 C 76.55 92.55 80.49 89.54 83.96 86.03 C 80.29 69.69 80.33 52.40 85.25 36.33 C 86.37 32.78 88.35 29.55 90.85 26.81 C 98.39 18.35 106.63 10.48 115.76 3.75 C 118.08 1.98 120.76 0.75 123.57 0.00 M 143.51 76.67 C 136.83 77.84 130.36 80.15 124.39 83.36 C 112.56 89.78 101.46 97.53 91.32 106.37 C 87.92 109.30 85.17 112.86 82.14 116.14 C 77.69 120.95 75.33 127.26 73.67 133.50 C 71.65 141.83 72.38 150.48 72.53 158.96 C 73.42 172.01 75.53 185.45 82.17 196.94 C 88.88 208.99 98.52 219.53 110.30 226.78 C 117.39 231.11 125.84 232.38 134.03 232.27 C 155.64 232.85 177.41 227.42 196.07 216.46 C 207.88 208.96 219.57 201.15 232.39 195.45 C 237.92 192.73 244.42 191.38 248.70 186.63 C 253.56 181.28 253.35 172.91 250.21 166.75 C 239.86 148.46 229.53 130.16 219.16 111.87 C 216.57 107.21 214.56 102.14 210.86 98.19 C 204.84 91.07 195.79 87.91 187.50 84.31 C 173.63 78.65 158.65 73.86 143.51 76.67 Z" />
<path fill="#000000" opacity="1.00" d=" M 128.09 120.21 C 134.76 118.27 141.39 123.03 143.83 129.08 C 147.01 136.35 145.30 145.75 139.09 150.89 C 134.66 154.58 127.66 154.63 123.34 150.72 C 113.57 142.79 115.73 124.30 128.09 120.21 Z" />
<path fill="#000000" opacity="1.00" d=" M 187.45 131.59 C 194.16 129.57 200.27 135.66 201.05 142.00 C 202.55 149.00 197.83 158.06 189.92 157.80 C 181.53 157.55 176.77 147.29 179.47 140.00 C 180.88 136.34 183.58 132.79 187.45 131.59 Z" />
</g>
<g id="#ffffffff">
<path fill="#ffffff" opacity="1.00" d=" M 143.51 76.67 C 158.65 73.86 173.63 78.65 187.50 84.31 C 195.79 87.91 204.84 91.07 210.86 98.19 C 214.56 102.14 216.57 107.21 219.16 111.87 C 229.53 130.16 239.86 148.46 250.21 166.75 C 253.35 172.91 253.56 181.28 248.70 186.63 C 244.42 191.38 237.92 192.73 232.39 195.45 C 219.57 201.15 207.88 208.96 196.07 216.46 C 177.41 227.42 155.64 232.85 134.03 232.27 C 125.84 232.38 117.39 231.11 110.30 226.78 C 98.52 219.53 88.88 208.99 82.17 196.94 C 75.53 185.45 73.42 172.01 72.53 158.96 C 72.38 150.48 71.65 141.83 73.67 133.50 C 75.33 127.26 77.69 120.95 82.14 116.14 C 85.17 112.86 87.92 109.30 91.32 106.37 C 101.46 97.53 112.56 89.78 124.39 83.36 C 130.36 80.15 136.83 77.84 143.51 76.67 M 128.09 120.21 C 115.73 124.30 113.57 142.79 123.34 150.72 C 127.66 154.63 134.66 154.58 139.09 150.89 C 145.30 145.75 147.01 136.35 143.83 129.08 C 141.39 123.03 134.76 118.27 128.09 120.21 M 187.45 131.59 C 183.58 132.79 180.88 136.34 179.47 140.00 C 176.77 147.29 181.53 157.55 189.92 157.80 C 197.83 158.06 202.55 149.00 201.05 142.00 C 200.27 135.66 194.16 129.57 187.45 131.59 Z" />
</g>
<g id="#d3463dff">
<path fill="#d3463d" opacity="1.00" d=" M 713.33 269.50 C 716.37 254.95 720.62 239.50 731.88 229.03 C 732.41 234.40 733.83 239.67 733.97 245.07 C 731.98 260.33 727.97 275.49 728.60 290.99 C 728.74 309.13 728.44 327.28 728.73 345.42 C 735.20 345.47 741.53 347.05 747.98 347.34 C 754.00 347.61 759.90 346.19 765.75 344.95 C 768.30 350.61 773.54 354.18 778.28 357.86 C 786.22 348.03 794.36 337.87 805.28 331.21 C 810.81 327.72 818.15 326.60 824.03 329.93 C 833.02 334.89 838.34 344.22 843.07 352.96 C 847.48 362.15 852.21 372.04 850.80 382.53 C 849.07 396.49 841.13 408.70 832.56 419.48 C 825.65 427.57 818.38 435.81 808.93 440.98 C 803.78 443.92 797.12 444.43 791.97 441.21 C 782.67 435.65 777.68 425.58 772.56 416.46 C 767.71 407.18 763.25 396.75 764.93 386.05 C 766.26 376.50 771.35 368.10 776.46 360.13 C 769.20 363.61 761.90 367.14 754.03 369.02 C 745.50 371.06 736.91 372.87 728.53 375.44 C 729.78 384.23 732.26 393.62 739.16 399.73 C 746.97 406.19 757.19 408.48 766.94 410.19 C 766.41 416.64 768.65 423.91 764.75 429.64 C 762.24 433.40 760.22 437.69 756.56 440.50 C 750.17 444.72 740.34 443.42 735.88 436.97 C 733.09 433.05 729.80 429.44 727.79 425.04 C 717.72 403.86 707.34 382.82 696.95 361.79 C 688.47 359.43 679.58 360.29 670.92 359.39 C 669.54 359.22 668.00 359.03 667.03 357.94 C 662.40 352.80 659.05 346.40 658.07 339.51 C 672.95 340.78 687.88 343.14 702.69 344.09 C 708.67 319.61 708.46 294.17 713.33 269.50 M 794.80 370.84 C 785.93 382.40 782.08 397.79 784.88 412.13 C 785.39 414.49 786.25 417.61 789.00 418.14 C 794.44 418.74 799.93 418.18 805.39 418.35 C 810.90 412.22 815.99 405.73 821.39 399.51 C 828.72 391.06 833.90 380.78 836.35 369.86 C 826.88 369.49 818.18 365.22 808.90 363.77 C 803.24 362.95 798.13 366.61 794.80 370.84 Z" />
<path fill="#d3463d" opacity="1.00" d=" M 44.45 265.65 C 51.26 262.99 58.69 262.10 65.96 262.49 C 77.08 263.01 87.63 267.33 97.18 272.80 C 112.29 281.66 125.29 293.62 137.41 306.15 C 135.44 312.12 132.61 317.81 128.79 322.81 C 119.93 334.80 106.20 342.18 92.05 346.06 C 75.31 350.56 57.84 351.95 41.29 357.26 C 35.62 359.05 30.21 361.54 24.88 364.15 C 31.44 376.75 38.54 389.28 47.89 400.04 C 54.64 407.53 63.06 413.55 72.42 417.34 C 79.39 420.16 86.88 421.26 94.19 422.84 C 110.00 426.32 126.01 428.71 142.01 431.05 C 156.56 432.99 171.33 434.74 185.99 433.00 C 183.83 428.89 180.37 425.46 178.88 421.02 C 178.16 410.62 181.71 400.59 184.13 390.62 C 188.04 396.87 191.47 403.41 195.46 409.63 C 198.18 414.01 200.87 418.84 205.60 421.34 C 209.00 423.32 213.44 424.09 216.91 421.86 C 232.13 412.77 245.59 399.25 251.01 382.01 C 235.64 376.99 219.23 377.70 203.48 374.64 C 193.40 372.72 182.69 369.17 176.30 360.61 C 167.57 349.50 166.28 334.64 166.98 321.03 C 167.69 306.12 171.52 290.22 182.51 279.44 C 194.24 268.03 211.69 264.28 227.57 265.61 C 236.20 268.79 239.57 278.47 242.74 286.31 C 237.60 287.15 232.32 287.01 227.24 285.87 C 220.83 284.80 214.66 281.31 208.04 282.32 C 200.88 284.50 197.07 291.71 193.85 297.91 C 188.94 309.09 182.20 320.29 182.77 332.94 C 182.57 341.60 187.93 349.23 194.05 354.85 C 206.17 365.34 222.71 366.75 237.62 370.59 C 251.01 373.09 262.59 381.51 271.09 391.90 C 261.19 414.26 242.50 432.51 219.97 442.00 C 213.61 444.49 206.77 446.36 199.89 445.90 C 194.48 445.00 191.17 440.12 188.03 436.11 C 187.85 441.05 187.26 445.97 186.21 450.81 C 173.64 458.39 161.15 466.46 147.17 471.24 C 139.78 473.78 131.53 474.50 124.04 471.96 C 113.02 468.14 102.94 462.08 93.38 455.48 C 82.13 447.63 71.61 438.80 61.49 429.55 C 44.11 413.21 26.71 396.52 13.29 376.65 C 6.92 367.14 1.68 356.60 0.00 345.17 L 0.00 340.66 C 1.21 332.72 5.13 325.59 8.48 318.40 C 15.85 304.17 23.63 290.09 32.89 276.99 C 36.17 272.73 39.27 267.78 44.45 265.65 M 50.01 288.00 C 46.50 288.40 45.26 292.07 43.73 294.71 C 37.39 306.96 31.85 319.62 24.87 331.54 C 33.73 333.80 43.10 334.61 52.13 332.79 C 67.76 329.78 82.17 322.56 95.75 314.49 C 88.12 304.76 80.67 294.05 79.45 281.37 C 69.61 283.48 59.82 285.78 50.01 288.00 Z" />
<path fill="#d3463d" opacity="1.00" d=" M 858.14 282.99 C 867.34 271.29 882.53 266.26 896.93 265.38 C 901.44 265.28 906.63 264.52 910.39 267.66 C 916.11 272.37 918.96 279.55 921.51 286.31 C 915.96 287.25 910.28 286.91 904.83 285.59 C 899.85 284.58 895.10 282.45 890.00 282.09 C 884.75 281.77 880.49 285.63 877.57 289.57 C 872.59 296.42 869.68 304.46 866.23 312.13 C 862.24 321.17 860.29 331.53 862.99 341.21 C 867.86 353.16 879.38 361.16 891.48 364.65 C 901.35 367.37 911.43 369.22 921.33 371.82 C 927.63 373.51 933.23 376.98 938.58 380.60 C 942.51 368.19 950.50 357.64 959.18 348.15 C 965.75 341.06 972.44 333.50 981.44 329.49 C 986.78 326.99 993.30 327.59 998.22 330.78 C 1005.82 335.60 1010.60 343.56 1014.77 351.30 C 1018.86 359.29 1022.74 367.62 1024.00 376.59 L 1024.00 380.17 C 1022.06 399.15 1009.83 414.82 997.36 428.39 C 991.37 434.59 984.56 440.76 976.05 443.06 C 967.62 445.07 960.06 438.93 955.25 432.66 C 949.47 425.09 944.97 416.61 941.21 407.88 C 934.56 416.86 926.77 425.10 917.50 431.41 C 906.44 439.19 893.70 445.88 879.88 446.05 C 872.29 445.52 868.48 437.93 864.63 432.40 C 862.05 427.75 857.19 423.79 857.60 418.02 C 857.68 408.49 860.72 399.36 863.02 390.21 C 867.10 397.64 871.37 404.97 875.81 412.19 C 878.18 416.03 881.05 419.83 885.21 421.86 C 888.51 423.54 892.70 423.84 895.95 421.84 C 911.10 412.69 924.34 399.09 929.89 381.97 C 915.98 377.56 901.25 377.60 886.93 375.44 C 876.46 373.81 865.31 371.19 857.59 363.41 C 848.37 354.22 845.57 340.61 845.74 328.02 C 845.45 312.34 848.01 295.54 858.14 282.99 M 966.36 372.45 C 959.27 382.74 955.43 395.46 956.88 407.98 C 957.33 411.49 957.53 416.12 961.06 418.01 C 966.74 418.84 972.51 418.21 978.23 418.25 C 984.35 410.74 990.71 403.43 996.84 395.93 C 1002.99 388.36 1006.84 379.22 1009.33 369.86 C 999.50 369.66 990.58 364.88 980.92 363.69 C 974.76 363.19 969.80 367.88 966.36 372.45 Z" />
<path fill="#d3463d" opacity="1.00" d=" M 396.95 283.09 C 414.42 280.34 432.27 276.84 449.96 279.83 C 468.66 282.88 487.30 287.10 505.02 293.89 C 515.23 299.87 520.64 311.76 522.34 323.09 C 523.65 336.05 522.09 349.12 523.30 362.09 C 524.04 368.41 525.76 375.07 530.15 379.87 C 534.99 382.92 541.14 381.87 546.59 381.92 C 545.42 373.90 544.05 365.91 543.17 357.86 C 542.66 352.22 543.53 345.88 547.73 341.73 C 550.36 339.17 553.16 336.78 555.75 334.17 C 558.76 336.48 561.57 339.22 563.19 342.72 C 566.73 350.09 568.89 358.03 572.33 365.44 C 579.63 360.81 586.44 355.45 593.56 350.56 C 597.65 347.86 602.06 345.15 607.07 344.79 C 618.34 344.08 629.81 348.18 638.13 355.81 C 644.79 361.69 649.50 369.35 653.87 376.99 C 663.74 393.47 669.43 412.31 681.29 427.60 C 683.80 431.23 682.26 435.92 682.70 440.02 C 682.39 443.73 683.76 448.63 680.15 451.13 C 675.82 453.71 670.32 453.72 665.53 452.63 C 657.99 450.60 653.26 443.50 650.60 436.61 C 649.91 432.48 650.87 428.26 650.26 424.12 C 649.04 414.54 646.23 405.20 642.74 396.23 C 639.37 388.25 635.13 380.11 628.00 374.87 C 623.20 371.38 616.61 369.38 610.92 371.84 C 604.68 374.58 600.52 380.20 595.53 384.60 C 590.67 388.93 586.44 393.88 581.95 398.58 C 586.28 404.46 584.83 412.20 583.80 418.90 C 581.79 428.34 579.51 437.72 578.30 447.31 C 570.30 447.37 562.30 447.54 554.31 447.17 C 553.46 433.55 552.24 419.94 550.17 406.45 C 541.54 411.09 534.35 419.15 532.42 428.94 C 529.66 444.51 530.09 460.39 528.86 476.09 C 527.52 488.84 524.15 502.46 514.46 511.53 C 505.33 506.12 503.44 494.70 503.04 484.98 C 502.48 461.13 505.72 437.38 505.25 413.53 C 493.40 413.45 481.55 413.51 469.70 413.50 C 465.83 417.76 462.61 423.00 462.21 428.87 C 461.82 432.10 463.15 435.14 464.23 438.10 C 447.90 433.72 433.25 425.03 417.94 418.11 C 406.25 412.79 394.14 408.30 381.60 405.42 C 385.59 401.33 390.18 397.77 395.39 395.37 C 404.35 391.11 413.92 387.13 424.04 387.53 C 425.96 387.27 428.84 388.14 429.84 385.91 C 433.87 378.27 432.87 369.22 431.41 361.04 C 427.65 341.53 421.14 322.71 414.89 303.89 C 403.19 303.55 391.48 303.71 379.77 303.80 C 380.11 308.30 379.87 313.04 381.76 317.24 C 383.96 319.32 386.94 320.25 389.61 321.57 C 388.94 327.75 387.94 333.88 387.16 340.04 C 386.72 345.29 382.28 348.94 381.15 353.96 C 380.52 356.18 380.46 358.56 379.58 360.71 C 376.26 363.64 371.59 363.86 367.64 365.49 C 356.53 370.15 345.53 375.09 334.94 380.84 C 327.34 385.14 317.95 385.46 310.98 390.98 C 308.59 392.88 308.50 396.20 307.96 398.96 C 307.14 406.60 303.79 414.25 305.94 421.97 C 308.87 435.75 308.35 449.95 310.50 463.84 C 312.84 474.40 313.46 485.23 314.49 495.97 C 315.24 502.91 311.59 509.13 307.91 514.68 C 303.03 510.03 297.40 506.08 293.42 500.57 C 292.22 498.97 292.34 496.88 292.28 495.00 C 292.38 483.99 292.29 472.97 292.36 461.96 C 292.32 456.54 291.65 450.93 289.11 446.06 C 286.67 441.69 280.22 440.33 279.49 434.96 C 278.30 424.94 277.72 414.86 276.41 404.86 C 273.96 390.07 274.49 374.91 276.72 360.12 C 278.15 350.85 276.56 341.39 278.28 332.17 C 280.05 324.00 282.71 316.06 285.00 308.03 C 302.30 308.53 319.59 309.28 336.88 309.85 C 344.15 309.93 351.23 311.66 358.40 312.62 C 352.72 306.71 346.51 300.99 342.85 293.53 C 360.58 288.61 378.81 285.97 396.95 283.09 M 446.58 305.43 C 451.81 332.68 458.21 359.79 460.74 387.48 C 468.80 387.53 476.87 387.45 484.94 387.55 C 486.79 387.46 488.96 387.76 490.43 386.36 C 495.14 382.06 499.67 377.56 504.10 372.98 C 497.96 353.68 492.53 333.97 482.92 316.02 C 480.87 312.48 479.38 308.41 476.29 305.63 C 466.42 304.99 456.47 305.49 446.58 305.43 M 316.39 334.28 C 314.57 339.91 315.82 345.86 316.38 351.58 C 321.77 352.53 327.14 351.42 332.49 350.79 C 338.95 349.83 345.60 350.57 351.96 349.00 C 358.72 346.74 365.80 342.66 368.67 335.81 C 365.35 332.58 360.29 332.94 356.00 332.60 C 344.32 332.84 332.61 333.61 320.93 332.88 C 319.41 332.90 317.02 332.42 316.39 334.28 Z" />
</g>
</svg>
