<?xml version="1.0" encoding="UTF-8" standalone="no"?>
<!-- Created with Inkscape (http://www.inkscape.org/) -->

<svg
   xmlns:dc="http://purl.org/dc/elements/1.1/"
   xmlns:cc="http://creativecommons.org/ns#"
   xmlns:rdf="http://www.w3.org/1999/02/22-rdf-syntax-ns#"
   xmlns:svg="http://www.w3.org/2000/svg"
   xmlns="http://www.w3.org/2000/svg"
   xmlns:sodipodi="http://sodipodi.sourceforge.net/DTD/sodipodi-0.dtd"
   xmlns:inkscape="http://www.inkscape.org/namespaces/inkscape"
   width="2288.98"
   height="500"
   id="svg4518"
   version="1.1"
   inkscape:version="0.48.1 "
   sodipodi:docname="Neues Dokument 3">
  <defs
     id="defs4520" />
  <sodipodi:namedview
     id="base"
     pagecolor="#ffffff"
     bordercolor="#666666"
     borderopacity="1.0"
     inkscape:pageopacity="0.0"
     inkscape:pageshadow="2"
     inkscape:zoom="0.67715717"
     inkscape:cx="1144.4906"
     inkscape:cy="250"
     inkscape:document-units="px"
     inkscape:current-layer="layer1"
     showgrid="false"
     fit-margin-top="0"
     fit-margin-left="0"
     fit-margin-right="0"
     fit-margin-bottom="0"
     inkscape:window-width="1680"
     inkscape:window-height="990"
     inkscape:window-x="-4"
     inkscape:window-y="-4"
     inkscape:window-maximized="1" />
  <metadata
     id="metadata4523">
    <rdf:RDF>
      <cc:Work
         rdf:about="">
        <dc:format>image/svg+xml</dc:format>
        <dc:type
           rdf:resource="http://purl.org/dc/dcmitype/StillImage" />
        <dc:title></dc:title>
      </cc:Work>
    </rdf:RDF>
  </metadata>
  <g
     inkscape:label="Ebene 1"
     inkscape:groupmode="layer"
     id="layer1"
     transform="translate(-170.51985,-6.3341555)">
    <path
       inkscape:connector-curvature="0"
       d="m 2459.501,464.39606 -2288.98115,0 0,-405.527114 2288.98115,0 0,405.527114 z"
       style="fill:#c0e6eb;fill-opacity:1;fill-rule:nonzero;stroke:none"
       id="path642" />
    <g
       id="g644"
       transform="matrix(24.18747,0,0,-24.18747,260.77065,385.67804)">
      <path
         inkscape:connector-curvature="0"
         d="m 0,0 2.322,10.224 1.999,0 -1.036,-4.574 -0.033,0 4.563,4.574 2.304,0 L 6.278,6.388 8.277,0 6.06,0 4.567,4.857 2.698,3.074 2.001,0 0,0 z"
         style="fill:#231f20;fill-opacity:1;fill-rule:nonzero;stroke:none"
         id="path646" />
    </g>
    <g
       id="g648"
       transform="matrix(24.18747,0,0,-24.18747,260.77065,385.67804)">
      <path
         inkscape:connector-curvature="0"
         d="m 0,0 2.322,10.224 1.999,0 -1.036,-4.574 -0.033,0 4.563,4.574 2.304,0 L 6.278,6.388 8.277,0 6.06,0 4.567,4.857 2.698,3.074 2.001,0 0,0 z"
         style="fill:none;stroke:#231f20;stroke-width:0.04289411;stroke-linecap:butt;stroke-linejoin:miter;stroke-miterlimit:4;stroke-opacity:1;stroke-dasharray:none"
         id="path650" />
    </g>
    <g
       id="g660"
       transform="matrix(24.18747,0,0,-24.18747,780.24242,296.6101)">
      <path
         inkscape:connector-curvature="0"
         d="m 0,0 c -0.555,-0.595 -1.178,-1.233 -2.164,-1.233 -0.668,0 -1.064,0.355 -1.566,0.638 -0.334,0.184 -0.705,0.34 -1.226,0.34 -0.682,0 -1.149,-0.524 -1.493,-1.02 L -6.667,0 c 0.439,0.596 1.102,1.217 2.073,1.217 1.072,0 2.13,-0.962 2.869,-0.962 0.578,0 1.061,0.523 1.507,1.02 L 0,0 z"
         style="fill:#231f20;fill-opacity:1;fill-rule:nonzero;stroke:none"
         id="path662" />
    </g>
    <g
       id="g664"
       transform="matrix(24.18747,0,0,-24.18747,780.24242,296.6101)">
      <path
         inkscape:connector-curvature="0"
         d="m 0,0 c -0.555,-0.595 -1.178,-1.233 -2.164,-1.233 -0.668,0 -1.064,0.355 -1.566,0.638 -0.334,0.184 -0.705,0.34 -1.226,0.34 -0.682,0 -1.149,-0.524 -1.493,-1.02 L -6.667,0 c 0.439,0.596 1.102,1.217 2.073,1.217 1.072,0 2.13,-0.962 2.869,-0.962 0.578,0 1.061,0.523 1.507,1.02 L 0,0 z"
         style="fill:none;stroke:#231f20;stroke-width:0.04289411;stroke-linecap:butt;stroke-linejoin:miter;stroke-miterlimit:4;stroke-opacity:1;stroke-dasharray:none"
         id="path666" />
    </g>
    <g
       id="g668"
       transform="matrix(24.18747,0,0,-24.18747,1471.2349,384.70067)">
      <path
         inkscape:connector-curvature="0"
         d="m 0,0 2.321,10.224 1.998,0 -0.924,-4.079 4.028,0 0.926,4.079 2.001,0 L 8.031,0 6.03,0 7.027,4.39 2.997,4.39 2,0 0,0 z"
         style="fill:#231f20;fill-opacity:1;fill-rule:nonzero;stroke:none"
         id="path670" />
    </g>
    <g
       id="g672"
       transform="matrix(24.18747,0,0,-24.18747,1471.2349,384.70067)">
      <path
         inkscape:connector-curvature="0"
         d="m 0,0 2.321,10.224 1.998,0 -0.924,-4.079 4.028,0 0.926,4.079 2.001,0 L 8.031,0 6.03,0 7.027,4.39 2.997,4.39 2,0 0,0 z"
         style="fill:none;stroke:#231f20;stroke-width:0.04289411;stroke-linecap:butt;stroke-linejoin:miter;stroke-miterlimit:4;stroke-opacity:1;stroke-dasharray:none"
         id="path674" />
    </g>
    <g
       id="g676"
       transform="matrix(24.18747,0,0,-24.18747,1901.0002,292.21282)">
      <path
         inkscape:connector-curvature="0"
         d="M 0,0 2.436,0 2.271,4.446 2.242,4.446 0,0 z m 1.427,6.415 2.494,0 0.648,-10.239 -1.988,0 -0.078,2.21 -3.302,0 -1.127,-2.21 -1.986,0 5.339,10.239 z"
         style="fill:#231f20;fill-opacity:1;fill-rule:nonzero;stroke:none"
         id="path678" />
    </g>
    <g
       id="g680"
       transform="matrix(24.18747,0,0,-24.18747,1901.0002,292.21282)">
      <path
         inkscape:connector-curvature="0"
         d="M 0,0 2.436,0 2.271,4.446 2.242,4.446 0,0 z m 1.427,6.415 2.494,0 0.648,-10.239 -1.988,0 -0.078,2.21 -3.302,0 -1.127,-2.21 -1.986,0 5.339,10.239 z"
         style="fill:none;stroke:#231f20;stroke-width:0.04289411;stroke-linecap:butt;stroke-linejoin:miter;stroke-miterlimit:4;stroke-opacity:1;stroke-dasharray:none"
         id="path682" />
    </g>
    <g
       id="g684"
       transform="matrix(24.18747,0,0,-24.18747,2367.1243,137.05252)">
      <path
         inkscape:connector-curvature="0"
         d="m 0,0 -0.372,-1.643 -2.741,0 -1.949,-8.596 -2.002,0 1.951,8.596 -2.74,0 L -7.48,0 0,0 z"
         style="fill:#231f20;fill-opacity:1;fill-rule:nonzero;stroke:none"
         id="path686" />
    </g>
    <g
       id="g688"
       transform="matrix(24.18747,0,0,-24.18747,2367.1243,137.05252)">
      <path
         inkscape:connector-curvature="0"
         d="m 0,0 -0.372,-1.643 -2.741,0 -1.949,-8.596 -2.002,0 1.951,8.596 -2.74,0 L -7.48,0 0,0 z"
         style="fill:none;stroke:#231f20;stroke-width:0.04289411;stroke-linecap:butt;stroke-linejoin:miter;stroke-miterlimit:4;stroke-opacity:1;stroke-dasharray:none"
         id="path690" />
    </g>
    <g
       id="g692"
       transform="matrix(24.18747,0,0,-24.18747,992.61073,149.38117)">
      <path
         inkscape:connector-curvature="0"
         d="m 0,0 -1.667,-1.296 -0.667,-3.458 0.5,-4.467 2.25,-2.449 2.082,-0.216 1.417,0.287 -0.972,1.396 -0.168,1.399 -1.942,1.096 -0.666,1.224 0,1.296 1.083,0.937 2.082,0.361 0.665,-0.145 0.196,0.345 0.86,1.029 1.444,0.922 1.166,0.731 L 5.581,0.072 4.665,-0.505 3.248,-0.217 1.584,0.359 0,0 z"
         style="fill:#eb222c;fill-opacity:1;fill-rule:nonzero;stroke:none"
         id="path694" />
    </g>
    <g
       id="g696"
       transform="matrix(24.18747,0,0,-24.18747,1055.0895,120.91232)">
      <path
         inkscape:connector-curvature="0"
         d="m 0,0 c -3.249,-1.587 -5.499,-6.724 -4.084,-9.678 1.084,-2.232 3.166,-3.169 5.831,-3.099 1.501,0 2.667,0.435 4.083,0.794 1.251,0.216 2.584,0.144 1.416,-1.152 -1.75,-1.945 -4.829,-2.377 -7.495,-2.45 -5.167,-0.071 -8.499,3.098 -8.999,7.348 -0.583,4.395 1.666,10.3 6.913,11.885 C 0,4.369 2.583,4.729 5.08,4.297 7.496,3.938 9.911,3.001 12.412,2.856 13.411,2.784 14.578,2.784 15.494,3.36 12.245,-0.097 7.496,1.199 2.75,0.839 0.248,0.624 -0.75,-0.218 -2.583,-1.587"
         style="fill:#252020;fill-opacity:1;fill-rule:nonzero;stroke:none"
         id="path698" />
    </g>
    <g
       id="g700"
       transform="matrix(24.18747,0,0,-24.18747,1051.0138,113.95349)">
      <path
         inkscape:connector-curvature="0"
         d="m 0,0 c -3.735,-2.286 -6.038,-7.16 -3.579,-11.143 0.803,-1.301 2.762,-2.148 4.213,-2.204 1.466,-0.056 2.686,0.066 4.098,0.39 -0.134,-2.092 -1.286,-2.929 -3.453,-2.511 -2.122,-0.251 -4.115,0.106 -6.053,0.987 -5.407,2.457 -4.537,9.737 -2.113,13.864 C -3.11,5.818 5.262,3.567 11.001,2.418 11.658,2.286 13.594,2.043 14.241,2.256 11.375,1.314 9.082,0.911 6.067,0.95 2.527,0.994 0.265,0.53 -2.583,-1.586 c -0.34,-0.253 -0.008,-0.833 0.337,-0.576 5.587,4.155 12.842,0.404 18.144,4.998 0.252,0.22 -0.014,0.66 -0.324,0.558 C 9.308,1.336 2.787,6.804 -3.583,3.166 -7.539,0.906 -9.377,-2.925 -9.5,-7.398 c -0.094,-3.422 2.154,-7.158 5.533,-8.175 3.666,-1.104 10.189,-1.19 12.099,2.905 0.071,0.153 0.055,0.373 -0.12,0.456 -1.222,0.58 -2.16,0.247 -3.455,-0.103 -3.323,-0.898 -8.022,-0.701 -8.571,4.338 -0.322,2.961 2.002,5.964 4.351,7.402 C 0.703,-0.351 0.367,0.225 0,0"
         style="fill:#252020;fill-opacity:1;fill-rule:nonzero;stroke:none"
         id="path702" />
    </g>
    <g
       id="g704"
       transform="matrix(24.18747,0,0,-24.18747,1123.5545,126.74634)">
      <path
         inkscape:connector-curvature="0"
         d="m 0,0 c -0.165,1.801 4.582,1.368 5.334,0.289 -0.418,1.512 3.499,1.079 4.164,0.286 0,0.505 -0.084,0.937 -0.167,1.442 1.333,0 1.25,-0.072 1.416,-1.009 0.083,-0.504 0.168,-1.584 0,-2.016 C 10.496,-1.656 9.582,-2.161 9.414,-1.081 9.498,-1.37 9.331,-1.728 9.331,-2.017 8.082,-2.161 5.665,-2.593 5.5,-1.081 c 0.165,-2.016 -4.666,-1.08 -5.415,0.145 -0.25,-1.657 -3.165,-0.217 -3.833,0.504 0,0 1.667,1.854 3.916,1.773"
         style="fill:#ffffff;fill-opacity:1;fill-rule:nonzero;stroke:none"
         id="path706" />
    </g>
    <g
       id="g708"
       transform="matrix(24.18747,0,0,-24.18747,1129.6086,126.74634)">
      <path
         inkscape:connector-curvature="0"
         d="M 0,0 C 0.191,1.839 4.234,0.79 4.907,0.112 5.057,-0.039 5.341,0.069 5.334,0.289 5.281,1.831 8.721,0.679 9.071,0.399 9.222,0.277 9.515,0.335 9.498,0.575 9.493,0.84 9.473,1.102 9.435,1.363 9.682,1.378 9.927,1.392 10.172,1.406 10.553,0.461 10.288,-0.326 9.38,-0.955 9.271,-0.717 8.918,-0.85 8.913,-1.081 8.883,-2.54 5.859,-2.115 5.49,-1.015 5.397,-0.737 5.027,-0.803 5,-1.081 4.802,-3.115 0.72,-1.588 0.01,-0.759 c -0.133,0.157 -0.354,0.047 -0.417,-0.11 -0.816,-2.066 -2.806,0.897 -3.339,0.34 0.977,1.022 2.236,1.527 3.663,1.62 0.32,0.02 0.322,0.52 0,0.5 -1.586,-0.103 -2.978,-0.681 -4.092,-1.845 -0.09,-0.094 -0.105,-0.264 0,-0.355 0.678,-0.592 2.671,-1.937 3.628,-1.23 0.084,0.06 0.518,0.398 0.474,0.43 C 0.784,-2.048 1.77,-2.31 2.818,-2.465 3.54,-2.571 5.355,-2.561 5.462,-1.469 5.437,-1.727 4.8,-1.759 5.676,-2.127 c 1.108,-0.464 2.24,-0.283 3.405,-0.139 0.101,0.012 0.223,0.065 0.24,0.182 0.121,0.776 -0.377,0.304 0.411,0.15 0.373,-0.072 0.954,0.528 1.004,0.859 0.278,1.784 0.31,3.297 -1.655,3.342 C 8.904,2.27 8.815,2.105 8.841,1.95 9.061,0.554 9.303,1.007 8.198,1.353 7.491,1.574 6.707,1.567 5.983,1.493 5.321,1.426 4.713,0.895 4.991,0.726 3.689,1.524 -0.26,2.307 -0.501,0 -0.534,-0.32 -0.033,-0.317 0,0"
         style="fill:#231f20;fill-opacity:1;fill-rule:nonzero;stroke:none"
         id="path710" />
    </g>
    <g
       id="g712"
       transform="matrix(24.18747,0,0,-24.18747,1162.8135,169.0599)">
      <path
         inkscape:connector-curvature="0"
         d="m 0,0 c -4.055,-2.301 -5.202,-6.891 -3.41,-11.035 0.171,-0.394 0.744,-0.054 0.575,0.336 -1.649,3.816 -0.523,8.029 3.172,10.124 C 0.711,-0.363 0.375,0.212 0,0"
         style="fill:#252020;fill-opacity:1;fill-rule:nonzero;stroke:none"
         id="path714" />
    </g>
    <g
       id="g716"
       transform="matrix(24.18747,0,0,-24.18747,1015.4412,259.5936)">
      <path
         inkscape:connector-curvature="0"
         d="M 0,0 C 0,0 1.749,0.358 1.999,0.358 2.249,0.358 4.415,0 4.415,0 l 1,-0.217 1.166,0.36 1.5,0.288 1.915,-0.504 1.417,-0.288 1.499,-0.072 1,0.143 0.416,-0.143 -0.5,-1.009 -1.915,-1.8 -2,-0.505 -1.75,-0.431 -3.497,-0.145 -2.501,0 -1.582,0.504 -1,0.864 -0.249,0.937 L -0.5,-0.721 0,0 z"
         style="fill:#f36974;fill-opacity:1;fill-rule:nonzero;stroke:none"
         id="path718" />
    </g>
    <g
       id="g720"
       transform="matrix(24.18747,0,0,-24.18747,1035.5822,251.80755)">
      <path
         inkscape:connector-curvature="0"
         d="m 0,0 c 0,0 4.72,-3.635 12.164,-1.519 0,0 -2.221,-3.364 -10.11,-2.388 0,0 -5.219,1.52 -2.054,3.907"
         style="fill:#f199a9;fill-opacity:1;fill-rule:nonzero;stroke:none"
         id="path722" />
    </g>
    <g
       id="g724"
       transform="matrix(24.18747,0,0,-24.18747,1077.0662,254.73424)">
      <path
         inkscape:connector-curvature="0"
         d="M 0,0 C 1.726,-0.537 2.546,-0.711 4.285,-0.06 5.71,0.473 8.905,-0.814 10.589,-0.752 12.254,-0.69 10.766,-1.59 10.108,-2.251 8.855,-3.509 6.808,-4.094 5.117,-4.266 3.976,-4.382 2.806,-4.385 1.662,-4.384 0.829,-4.383 0.016,-4.263 -0.775,-4.025 -3.621,-1.224 -3.361,0.117 0,0 0.42,-0.071 0.601,0.571 0.178,0.642 -3.248,1.218 -5.531,-2.876 -1.734,-4.361 2.329,-5.95 10.806,-5.474 12.163,-0.227 12.224,0.01 12.001,0.262 11.753,0.183 9.73,-0.466 7.775,0.051 5.853,0.727 5.592,0.819 5.269,0.854 4.997,0.79 3.287,0.391 1.979,0.081 0.178,0.642 -0.233,0.77 -0.409,0.127 0,0"
         style="fill:#252020;fill-opacity:1;fill-rule:nonzero;stroke:none"
         id="path726" />
    </g>
    <g
       id="g728"
       transform="matrix(24.18747,0,0,-24.18747,992.92749,284.03494)">
      <path
         inkscape:connector-curvature="0"
         d="M 0,0 C 0.991,-1.074 2.499,-1.803 3.895,-2.174 4.312,-2.285 4.488,-1.642 4.073,-1.532 2.787,-1.189 1.385,-0.519 0.471,0.471 0.18,0.787 -0.291,0.315 0,0"
         style="fill:#252020;fill-opacity:1;fill-rule:nonzero;stroke:none"
         id="path730" />
    </g>
    <g
       id="g732"
       transform="matrix(24.18747,0,0,-24.18747,1132.6078,268.60333)">
      <path
         inkscape:connector-curvature="0"
         d="M 0,0 C 1.151,-0.843 2.706,-1.089 4.089,-0.814 4.51,-0.73 4.332,-0.088 3.912,-0.172 2.695,-0.414 1.344,-0.161 0.337,0.575 -0.011,0.83 -0.342,0.251 0,0"
         style="fill:#252020;fill-opacity:1;fill-rule:nonzero;stroke:none"
         id="path734" />
    </g>
    <g
       id="g736"
       transform="matrix(24.18747,0,0,-24.18747,1254.2031,311.91825)">
      <path
         inkscape:connector-curvature="0"
         d="m 0,0 c -0.022,-0.008 -0.045,-0.017 -0.068,-0.025 0.426,0.033 0.429,0.699 0,0.666 C -0.243,0.628 -0.354,0.613 -0.471,0.471 -0.742,0.143 -0.274,-0.331 0,0"
         style="fill:#252020;fill-opacity:1;fill-rule:nonzero;stroke:none"
         id="path738" />
    </g>
    <g
       id="g740"
       transform="matrix(24.18747,0,0,-24.18747,1278.4221,288.38152)">
      <path
         inkscape:connector-curvature="0"
         d="m 0,0 c -0.005,0.019 -0.01,0.038 -0.015,0.059 -0.029,0.105 -0.121,0.21 -0.233,0.232 -0.023,0.005 -0.046,0.009 -0.067,0.014 -0.42,0.084 -0.599,-0.559 -0.178,-0.643 0.024,-0.005 0.045,-0.009 0.068,-0.013 -0.079,0.076 -0.155,0.154 -0.233,0.232 0.005,-0.019 0.011,-0.038 0.016,-0.058 C -0.529,-0.591 0.114,-0.415 0,0"
         style="fill:#252020;fill-opacity:1;fill-rule:nonzero;stroke:none"
         id="path742" />
    </g>
    <g
       id="g744"
       transform="matrix(24.18747,0,0,-24.18747,1103.387,341.04461)">
      <path
         inkscape:connector-curvature="0"
         d="m 0,0 c 0.198,-0.092 0.365,-0.114 0.586,-0.117 0.43,-0.007 0.429,0.659 0,0.666 C 0.5,0.537 0.417,0.546 0.337,0.575 -0.05,0.755 -0.39,0.181 0,0"
         style="fill:#252020;fill-opacity:1;fill-rule:nonzero;stroke:none"
         id="path746" />
    </g>
    <g
       id="g748"
       transform="matrix(24.18747,0,0,-24.18747,1143.6226,348.80879)">
      <path
         inkscape:connector-curvature="0"
         d="m 0,0 c 0.198,-0.062 0.38,-0.081 0.587,-0.085 0.431,-0.007 0.429,0.66 0,0.666 C 0.446,0.572 0.311,0.592 0.178,0.642 -0.234,0.769 -0.409,0.126 0,0"
         style="fill:#252020;fill-opacity:1;fill-rule:nonzero;stroke:none"
         id="path750" />
    </g>
    <g
       id="g752"
       transform="matrix(24.18747,0,0,-24.18747,1067.7877,287.23252)">
      <path
         inkscape:connector-curvature="0"
         d="M 0,0 C 0,0 1.557,-0.651 3,-0.869 3,-0.869 0.556,-1.465 0,0"
         style="fill:#ffffff;fill-opacity:1;fill-rule:nonzero;stroke:none"
         id="path754" />
    </g>
  </g>
</svg>
